PathFileType	4	(X/Y/Z)	F:\MotionCapture\20160217\3\Generated_files\EMG_test01-Dynamic.trc
DataRate	CameraRate	NumFrames	NumMarkers	Units	OrigDataRate	OrigDataStartFrame	OrigNumFrames
120.00	120.00	       8	39	mm	120.00	176	       701
Frame#	Time	Top.Head			Front.Head			Rear.Head			R.Shoulder			R.Offset			R.Elbow			R.Wrist			L.Shoulder			L.Elbow			L.Wrist			R.ASIS			L.ASIS			V.Sacral			R.Thigh			R.Knee			R.Shank			R.Ankle			R.Heel			R.Toe			L.Thigh			L.Knee			L.Shank			L.Ankle			L.Heel			L.Toe			R1			R2			R3			R4			R5			R6			R7			L1			L2			L3			L4			L5			L6			L7			V_Mid_ASIS			V_Pelvis_Origin			V_R.Hip_JC			V_L.Hip_JC			V_R.Knee_JC			V_L.Knee_JC			V_R.Ankle_JC			V_L.Ankle_JC			V_Mid_Hip			V_Mid_Shoulder			V_R.Hand			V_L.Hand			V_R.Toe_Offset_Static			V_L.Toe_Offset_Static			V_R.Toe_Offset			V_L.Toe_Offset			
		X1	Y1	Z1	X2	Y2	Z2	X3	Y3	Z3	X4	Y4	Z4	X5	Y5	Z5	X6	Y6	Z6	X7	Y7	Z7	X8	Y8	Z8	X9	Y9	Z9	X10	Y10	Z10	X11	Y11	Z11	X12	Y12	Z12	X13	Y13	Z13	X14	Y14	Z14	X15	Y15	Z15	X16	Y16	Z16	X17	Y17	Z17	X18	Y18	Z18	X19	Y19	Z19	X20	Y20	Z20	X21	Y21	Z21	X22	Y22	Z22	X23	Y23	Z23	X24	Y24	Z24	X25	Y25	Z25	X26	Y26	Z26	X27	Y27	Z27	X28	Y28	Z28	X29	Y29	Z29	X30	Y30	Z30	X31	Y31	Z31	X32	Y32	Z32	X33	Y33	Z33	X34	Y34	Z34	X35	Y35	Z35	X36	Y36	Z36	X37	Y37	Z37	X38	Y38	Z38	X39	Y39	Z39	

176	1.458																																																																																																																																																																						-3297.39917	539.77728	857.62720	-2982.26880	257.71490	645.59760	-3500.48486	66.29823	31.06704	-2985.91064	242.53966	329.99799	-3009.13867	321.06894	468.26282	-3145.79175	-30.98096	1387.94861	-2843.77930	274.21991	42.87886	-3115.50781	164.86319	1697.92651	-3096.90161	303.53009	920.69135	-2985.08643	-121.97926	882.52393	-3135.41821	19.60625	900.33569	-3312.03198	23.50883	444.02695	-2875.11353	264.11948	44.46302	-3542.69214	141.64828	97.82439	-3616.16089	59.96619	68.96754	-3051.43286	224.62497	37.01076	-2889.55811	-17.52822	301.49207	-2886.76343	301.84317	42.77330	-3063.36084	294.90631	37.22442	-3457.22681	79.07262	31.67417	-3145.98877	379.97678	1391.73938	-3551.51685	37.17178	33.19391	-3445.48633	107.74750	242.32715	-3199.24731	57.27942	521.43451	-2925.58838	331.86990	40.12674	-2997.06982	162.43642	1620.24829	-3023.14429	305.90796	55.71942	-2988.48633	321.32159	32.29989	-3089.62061	256.02405	37.81204	-2969.23828	220.85246	46.58764	-3622.39697	301.75983	268.15799	-3488.60254	102.59782	37.35016	
177	1.467																																																																																																																																																																						-3498.95898	66.36805	31.28582	-3138.91113	-28.93603	1390.33667	-2843.26831	274.55206	42.07752	-3106.83008	166.91635	1699.63086	-3087.98120	306.43854	923.04059	-2977.58594	-121.60885	883.32434	-3124.97510	21.74601	902.36334	-3004.52539	322.18735	467.64124	-2874.60352	264.32266	43.92866	-3605.89771	58.22818	75.85774	-3051.39551	224.64969	36.96207	-2886.34668	302.37030	42.20311	-2982.92480	243.91043	328.91046	-3063.23438	295.02463	37.20370	-3136.99219	382.22467	1394.20557	-3183.78076	55.58473	521.70825	-2925.46655	332.23825	39.85004	-3022.98608	305.98047	55.42233	-2988.53174	321.64633	32.31715	-3089.50317	256.12607	37.83404	-2969.06055	221.03081	46.16788	-3533.66821	141.01237	102.93774	-3458.21533	78.72265	31.08577	-3283.14185	539.22229	857.96436	-2975.36279	259.60114	645.38727	-2988.97974	170.08122	1622.56042	-3314.61841	27.36719	439.78296	-3264.53198	487.94986	1107.68933	-3623.28809	309.93530	275.68008	-3486.83911	102.40688	37.51193	
178	1.475																																																																																																																																																																						-3483.93774	103.27522	38.30311	-3167.91455	53.86706	523.61237	-3497.31152	65.90207	32.86838	-3626.04199	134.05782	177.30249	-3354.90698	445.82169	127.68910	-3131.25952	-27.34533	1393.62415	-2842.58301	276.11743	39.08968	-3098.18823	168.21379	1702.49304	-3078.50171	308.98837	924.84180	-2971.74243	-121.85345	884.56500	-3116.70190	22.23919	904.80023	-3000.85522	322.09210	466.96472	-2874.32324	264.92407	42.73001	-3595.33057	55.47638	84.19006	-3052.03149	223.54669	38.34246	-2886.15967	302.43277	41.91480	-3063.19336	295.13266	37.11255	-3127.27612	382.45532	1397.00134	-2925.45801	332.56894	39.58416	-3023.01636	306.23849	55.39516	-2988.62183	321.80817	32.21346	-3089.52100	256.35822	37.87385	-2969.10205	221.22252	46.05031	-3657.12207	82.68158	68.74330	-3457.86548	78.69553	30.84687	-3268.11792	538.14429	857.77692	-2968.73145	262.63831	643.39111	-2980.49976	171.54509	1624.73035	-3252.12183	488.97467	1108.84790	
179	1.483																																																																																																																																																																						-3480.71436	103.36275	40.26954	-3494.54102	65.61477	35.66398	-2842.47656	276.10135	38.72943	-3069.12329	310.81110	926.81152	-2966.66089	-123.02943	885.63263	-3089.73462	169.30586	1704.35486	-2997.44922	323.92941	467.10321	-2874.33789	264.36005	43.46339	-3151.43579	51.16470	524.81671	-3051.37402	224.97472	36.82555	-3406.43457	101.11143	249.00682	-2885.79956	302.66574	41.44835	-3117.98193	-24.61060	1395.23193	-3063.14746	295.22729	37.01964	-3103.86133	26.78148	907.49878	-3118.11304	384.59317	1399.09619	-2972.90186	171.78131	1627.07056	-3263.87036	16.93397	443.86172	-3616.80176	91.97857	162.40417	-2924.95898	333.70837	37.80208	-3519.13867	138.04341	111.95612	-3023.02661	306.59375	55.31688	-2988.69995	322.01901	32.14523	-3089.51611	256.49319	37.87233	-2969.17920	221.38748	45.98601	-3456.42651	78.86942	30.71160	-3252.60522	538.18604	857.98773	-2962.37891	265.24615	643.52057	-2978.37158	244.76556	327.75497	-3239.41528	489.41333	1108.95837	
180	1.492																																																																																																																																																																						-3476.74707	102.85606	42.19718	-2964.62451	173.62811	1629.69141	-3491.34448	64.14556	39.44932	-3112.04614	-23.45300	1398.60229	-3108.74902	386.01935	1402.32153	-2985.98193	315.38943	26.09205	-2842.38843	276.26718	38.49035	-3138.57153	-137.10007	1077.18420	-3059.88525	313.20551	928.79614	-2961.48340	-122.93921	886.27515	-3246.20972	17.11148	442.18222	-3081.35718	171.35275	1706.23840	-2994.90210	324.80292	467.32660	-2874.19897	264.68573	43.28306	-3134.30371	49.64898	525.39984	-3507.24048	138.00398	118.86383	-3052.09521	223.73566	38.32413	-3392.77222	100.20589	252.20090	-2885.68311	302.90161	41.27693	-3063.18506	295.32211	36.98702	-3095.87769	27.69617	909.70715	-2924.92456	333.99017	37.60792	-3023.07349	306.78995	55.22666	-3089.57422	256.61792	37.88561	-2969.16772	221.37848	45.96666	-3516.73828	28.74682	51.86294	-3454.32202	78.05470	30.68324	-3236.75464	538.26965	858.10632	-2956.06201	267.08600	641.87311	-3572.50391	51.67527	101.21742	-2976.77930	245.05714	328.11279	-3226.71704	490.64526	1109.32336	-3460.46899	195.05075	194.17523	
181	1.500																																																																																																																																																																						-3472.02051	102.06357	44.22403	-3098.87695	386.92529	1404.24634	-2986.23975	315.86798	26.16191	-2842.39990	276.52576	38.18102	-3051.23706	315.26605	930.27478	-2956.31519	-123.45812	887.24103	-2991.83252	325.59698	466.52939	-2874.32666	264.55396	43.54606	-3116.96094	47.63599	526.55621	-3052.10864	223.98984	38.27470	-2885.68237	303.20853	41.13480	-3073.30542	171.46376	1708.40759	-3063.23462	295.46869	36.91053	-3086.73242	29.46659	912.09180	-2972.57495	246.40451	327.82474	-3497.47119	138.36569	124.77148	-3228.24878	17.65619	440.60205	-2950.64453	269.75095	641.12280	-2925.03125	334.31418	37.45111	-2955.04150	173.90804	1631.23669	-3023.10010	306.88135	55.10349	-3131.74438	-136.13857	1080.19092	-3089.67529	256.70996	37.88263	-2969.12305	221.57153	45.91705	-3507.23999	30.33007	59.49110	-3219.77881	536.20166	857.93958	-3213.24951	491.68951	1110.01172	-3450.21069	195.46935	200.55652	-3559.60547	51.04480	110.60222	-3377.54175	101.44588	254.76128	-3102.10669	-19.78112	1399.91064	-3587.33496	132.03186	207.96764	-3177.10034	174.02657	1630.35913	
182	1.508																																																																																																																																																																						-3209.20068	16.00336	440.21744	-3099.13599	45.13062	528.07227	-3096.57886	-20.40599	1402.63000	-3089.57056	389.91782	1406.54907	-2986.38843	315.88235	25.89136	-2842.42041	276.79242	38.03548	-3362.00610	98.88214	257.43073	-3042.34473	317.27530	931.55054	-2952.05200	-122.90681	887.51978	-3457.56616	27.74085	201.69588	-3494.15405	30.20360	66.16095	-2989.10132	326.83334	466.37381	-2874.17285	265.12222	43.15644	-3052.16748	224.14024	38.28809	-2885.67334	303.38589	41.01504	-3065.63428	172.39458	1710.38428	-3063.37769	295.59067	36.76863	-3078.74634	31.71110	913.88745	-2945.56885	272.43640	640.82440	-2925.09766	334.48886	37.25762	-2947.15332	174.92703	1633.32324	-3023.21826	307.15637	55.19323	-3089.77173	256.87039	37.83113	-2969.13184	221.74765	45.90565	-3202.82739	535.88843	857.98651	-3200.26367	492.02979	1110.36035	-3571.83398	132.80315	218.82755	-3168.55835	175.64009	1632.44263	
183	1.517																																																																																																																																																																						-3118.60425	-130.96727	1084.34509	-3189.70288	15.94063	439.27698	-3082.74634	45.34055	529.90216	-3087.38721	-18.74672	1405.15735	-3079.51709	389.42551	1408.72437	-2986.38110	315.81653	25.56033	-2842.45190	276.96445	37.89189	-3345.25732	100.03870	260.82175	-2946.72900	-123.77336	888.11426	-2986.84033	327.77536	465.87192	-2874.22217	265.34595	43.12004	-3033.70679	319.45325	933.49689	-3068.93555	33.32883	916.30750	-3052.21533	224.33502	38.25254	-3434.89941	74.83889	30.57573	-2885.68799	303.54639	40.92599	-3056.50098	173.01865	1712.23999	-3063.42456	295.79333	36.64423	-3522.94385	156.75967	187.67958	-2940.12451	273.21341	639.04309	-3556.71997	91.70413	203.46306	-2925.20898	334.78778	37.15572	-2939.07104	175.23752	1635.34290	-3023.25415	307.47983	55.13641	-3490.96338	50.91675	201.93228	-3089.83984	256.96310	37.80318	-2969.21460	221.96700	45.96824	-3476.86108	138.85197	134.85875	-2972.51587	246.28723	328.27914	-3184.30103	533.54498	857.04120	-3186.64136	493.49219	1110.43506	-3160.41382	176.96384	1634.38843	
